# xmcd
#
# Track frame offsets: 
#        150
#        17878
#        36498
#        51569
#        69234
#        90326
#        110455
#        130005
#        148999
#        170283
#        190648
#        206527
#        228004
#        250795
#        266417
#        281229
#
# Disc length: 4036 seconds
#
# Revision: 0
# Processed by: cddbd v1.5.2PL0 Copyright (c) Steve Scherf et al.
# Submitted via: ExactAudioCopyFreeDBPlugin 1.0
#
DISCID=e10fc210
DTITLE=齐豫 - 经典精选Disk2
DYEAR=1900
DGENRE=Country
TTITLE0=Windflower
TTITLE1=I Swear
TTITLE2=Longer
TTITLE3=Send in the Clowns
TTITLE4=Where have all the flowers gone
TTITLE5=Memory
TTITLE6=Vind de Amorep
TTITLE7=Vincent
TTITLE8=Vnborn Heart
TTITLE9=Diamonds and Rust
TTITLE10=Angles Roses and Rain
TTITLE11=All Sovle Night
TTITLE12=Wond Beneath My Wings
TTITLE13=Dannys Song
TTITLE14=Tears
TTITLE15=Wjos Pering Steppe
EXTD=
EXTT0=
EXTT1=
EXTT2=
EXTT3=
EXTT4=
EXTT5=
EXTT6=
EXTT7=
EXTT8=
EXTT9=
EXTT10=
EXTT11=
EXTT12=
EXTT13=
EXTT14=
EXTT15=
PLAYORDER=
